<svg version="1" xmlns="http://www.w3.org/2000/svg" width="266.667" height="266.667" viewBox="0 0 200.000000 200.000000"><path d="M93.3 15.2c-3.3 3.6-8.9 13-9.7 16.3-2.4 9.6-2.9 34.4-.8 41.2.7 2.2 2.8 6.4 4.8 9.3 4.2 6.1 4.5 10.1 1.5 17.9-2.9 7.3-11.5 19.1-13.9 19.1-4-.1-4.3-5.9-.7-13 2.6-5.2 2.7-5.9 2.1-15-.8-12-2-20.1-4-26.5-.9-2.8-1.9-8.6-2.3-13-1-13.2-2.8-15.3-7.9-9.3-8 9.6-12.6 32-9.3 45.6 1.4 5.8 6.1 14.8 9.7 18.9 1.5 1.6 3.5 3.9 4.5 5 3.7 4.2 3.8 11.8.1 21-3.7 9.4-13.3 29-14.8 30.3-1 .8-1.2.4-.9-1.7 1-5.9 1.9-21.1 1.7-27.3-.2-7.4-3.8-21.1-6.6-25.3-1.1-1.5-1.6-2.7-1.2-2.7.3 0 .1-.7-.7-1.6-.7-.9-1.5-3.4-1.8-5.7-.3-2.2-1.1-4.2-1.7-4.4-.6-.2-2.7 5.3-4.9 12.4-4.1 13.4-4.9 21.4-3.2 31.5 1 6.3 1.5 7.4 5.3 13 1.8 2.7 3.8 6.5 4.4 8.5.7 2.1 1.9 5.3 2.8 7.2 1.3 2.9 1.4 4.2.2 9.5-.7 3.3-1.5 7.1-1.8 8.4-.4 2.1-.1 2.3 2.4 2 2.3-.2 2.9-.9 3.6-3.8 2.2-9.5 5.3-18.1 7.5-20.4 1.3-1.4 2.5-2.6 2.7-2.6.2 0 2.9.9 6.2 2.1 6.9 2.4 14.3 2.1 26.6-1 14-3.6 21.2-8.7 31.3-22.1 2.7-3.6 5.7-7.1 6.7-7.8 1-.7 1.8-2 1.8-2.8 0-1.4-1.6-1.5-11.5-.9-11.8.7-13.1.8-22.5 2.6-16.9 3.3-21.7 6-30.2 17.7-2.2 3.1-4.3 5.9-4.5 6.1-.2.3-.9-.1-1.5-.7-3.1-3.1 14.9-31.1 23.8-37.3 6.3-4.3 10.6-4.7 17.3-1.5 14.6 6.8 37.1-1.8 49.5-18.8 4.5-6.3 6.1-9.1 10.9-19.4.9-1.8.8-2.5-.3-3.3-1.9-1.2-9.6-.4-14.1 1.5-1.9.7-5.4 1.7-7.9 2-21.5 3.3-29.2 6.3-34.9 13.9-2.1 2.9-4.8 7.2-5.9 9.7-2.3 5-4.1 6.9-8.9 9.4-3.1 1.6-3.3 1.5-3.3-.1 0-1 2-5.9 4.5-10.8 4.7-9.4 11-17.7 13.7-18.1 7.2-1 13.1-4.4 27.8-16 13.1-10.2 17-14.1 21.1-20.7 1.8-2.9 5.2-7.3 7.6-9.9 2.4-2.6 4.3-5.2 4.3-5.7 0-2.7-10.6-2.7-18.9.1-6.9 2.3-10.7 4.7-21.3 13.5-13 10.8-19 18.6-22.3 28.8-3.1 9.4-6.7 16-7.2 13.4-.2-.9 1.5-6.1 3.8-11.4 4.1-9.8 4.1-9.8 3.5-18.9-2.1-28.9-4.7-40.6-8.9-40.6-.8 0-2.3 1-3.4 2.2z"/></svg>