<svg xmlns="http://www.w3.org/2000/svg" width="170.667" height="170.667" preserveAspectRatio="xMidYMid meet" version="1.0" viewBox="0 0 128 128"><metadata>Created by potrace 1.11, written by Peter Selinger 2001-2013</metadata><g fill="#000" stroke="none"><path d="M571 1154 c-42 -63 -52 -108 -53 -223 -1 -77 3 -105 19 -142 11 -26 26 -50 32 -53 27 -17 -1 -110 -55 -181 -47 -62 -69 -33 -34 46 20 48 21 57 10 138 -6 47 -18 111 -26 142 -7 31 -14 76 -14 98 0 30 -5 43 -17 48 -42 16 -103 -127 -103 -241 1 -78 17 -123 69 -190 59 -77 59 -106 -7 -240 -28 -58 -53 -106 -55 -106 -2 0 1 37 6 83 10 94 -2 171 -38 257 -13 30 -26 63 -29 73 -10 33 -23 17 -47 -60 -17 -55 -24 -99 -23 -151 1 -66 6 -82 49 -168 45 -91 47 -97 36 -139 -15 -59 -14 -65 8 -65 14 0 22 15 36 65 9 36 25 75 35 87 15 19 20 20 50 10 69 -25 187 -7 272 41 34 18 168 165 168 183 0 9 -178 -4 -243 -17 -76 -17 -120 -42 -168 -99 -23 -28 -44 -48 -47 -46 -7 7 67 136 105 182 18 22 48 49 68 59 33 19 36 19 85 1 134 -48 289 33 369 193 17 33 31 65 31 71 0 14 -59 12 -111 -4 -24 -8 -74 -20 -110 -26 -88 -16 -137 -45 -176 -105 -38 -60 -69 -95 -83 -95 -14 0 13 63 54 125 26 40 42 53 77 63 78 24 263 172 296 236 8 17 29 46 47 64 26 28 28 34 16 43 -19 12 -94 2 -145 -20 -53 -23 -155 -109 -205 -172 l-40 -51 0 54 c0 29 -5 92 -11 138 -18 146 -46 172 -98 94z m84 -369 c-8 -21 -18 -36 -21 -33 -2 3 3 22 12 42 23 47 30 39 9 -9z" transform="translate(0.000000,128.000000) scale(0.100000,-0.100000)"/></g></svg>