<svg version="1" xmlns="http://www.w3.org/2000/svg" width="266.667" height="266.667" viewBox="0 0 200.000000 200.000000"><path d="M92 16.7c-5.6 6.8-8.9 15-10 24.8-2.3 20.9-.3 34 6.2 41.2 5.9 6.4 2.8 18.9-8.1 32.1-4.2 5-7 5.3-8.3.7-.6-2.4-.2-4.1 2.2-8.8 1.9-3.6 3-7.2 3-9.8 0-7.7-2.2-23.4-4.6-32.8C71.1 59 70 52.9 70 50.5c0-18.8-8.8-13.1-15.5 10.1C49 79.5 52 93.1 64.8 108.8c4.7 5.7 4.7 5.7 4.7 13.2 0 7-.4 8.3-5.8 20-3.2 6.8-6.9 14.4-8.3 16.8-3 5-4.9 4.5-3.4-.8.5-1.9 1.1-9.3 1.2-16.5.2-14.6-1.7-23.5-7.2-34.5-1.7-3.3-3-7-3-8.2 0-2.4-1.6-5.6-2.3-4.8-.9 1.1-7.7 24.9-8.3 29.1-.8 6.3 1.2 18.5 3.9 23.6 3.9 7.3 7.5 14.7 9.3 19.1 1.5 3.8 1.6 5 .5 10.5-1.9 9.4-1.9 10.2.6 10.5 1.4.2 2.3-.3 2.6-1.5 3.2-11.8 6.4-20.6 8.2-22.9l2.3-2.8 7.1 2.3c7.9 2.6 12.8 2.5 25-.5 14.2-3.6 21.4-8.4 31.4-21.2 3.4-4.2 7-8.4 8.1-9.3 1.1-.9 1.6-2.1 1.2-2.8-1.6-2.6-32.5.9-45.3 5.1-7.4 2.4-13.3 7.2-18.8 15.2-3.8 5.6-6.5 7.2-6.5 3.8 0-2.7 10.7-21.4 15.9-27.8 9-11.1 18.1-15 25.3-10.6 10.6 6.3 31.5 1.1 44-11 5.7-5.6 10-12 14.5-21.4 3-6.3 3.4-7.8 2.2-8.5-1.8-1.2-8.5-.3-15.6 2.2-3.1 1-6.7 1.9-8 1.9-4.7 0-17.9 3.2-23.5 5.7-6.2 2.8-10 6.8-14.3 15.3-1.5 3-3.5 6.3-4.4 7.4-2.2 2.4-8.9 5.8-9.5 4.7-1.1-1.7 10.3-22.9 14.7-27.3 1-.9 4.1-2.3 7-3.2 6.1-1.8 12-5.4 23.7-14.4 12.2-9.5 17.8-14.9 21.8-21.2 1.9-3 5.4-7.6 7.8-10.2 2.4-2.6 4.4-5.1 4.4-5.7 0-3.9-17.7-1.8-25.9 3.1-6.9 4.2-22.4 17.3-27.6 23.5-3.2 3.7-6.2 8.6-7.4 12-1.2 3.2-2.8 7.7-3.7 10-.9 2.4-2.4 5.3-3.4 6.5l-1.9 2.3-.1-2.3c0-1.2 1.1-4.4 2.4-7 5.4-10.9 5.9-14.1 4.6-29-2.1-24.4-4.6-34.2-8.5-34.2-.7 0-2.8 1.7-4.5 3.7z"/></svg>